<svg version="1.1" xmlns="http://www.w3.org/2000/svg" viewBox="0 0 48 48" width="48px" height="48px">
    <path fill="#EA4335" d="M24 9.5c3.54 0 6.71 1.22 9.21 3.6l6.85-6.85C35.9 2.73 30.47 0 24 0 14.63 0 6.51 5.38 2.56 13.22l7.98 6.19C13.21 12.33 18.2 9.5 24 9.5z"/>
    <path fill="#4285F4" d="M46.7 24.5c0-1.57-.15-3.09-.4-4.55H24v9.01h12.9a10.92 10.92 0 0 1-4.73 7.24l7.98 6.19C42.02 41.7 46.7 34.16 46.7 24.5z"/>
    <path fill="#FBBC04" d="M10.53 28.59c-.48-1.45-.76-2.99-.76-4.59s.27-3.14.76-4.59L2.56 13.22C.99 16.22 0 20.21 0 24.5s.99 8.28 2.56 11.28l7.97-6.19z"/>
    <path fill="#34A853" d="M24 48c6.48 0 11.93-2.13 15.9-5.79l-7.98-6.19c-2.19 1.48-4.97 2.37-7.92 2.37-5.8 0-10.79-2.83-14.24-7.01l-7.98 6.19C6.51 42.62 14.63 48 24 48z"/>
    <path fill="none" d="M0 0h48v48H0z"/>
</svg>